<?xml version="1.0" encoding="UTF-8" standalone="no"?>
<!-- Created with Inkscape (http://www.inkscape.org/) -->

<svg
   xmlns:dc="http://purl.org/dc/elements/1.1/"
   xmlns:cc="http://creativecommons.org/ns#"
   xmlns:rdf="http://www.w3.org/1999/02/22-rdf-syntax-ns#"
   xmlns:svg="http://www.w3.org/2000/svg"
   xmlns="http://www.w3.org/2000/svg"
   xmlns:sodipodi="http://sodipodi.sourceforge.net/DTD/sodipodi-0.dtd"
   xmlns:inkscape="http://www.inkscape.org/namespaces/inkscape"
   width="210mm"
   height="210mm"
   viewBox="0 0 210 210"
   version="1.1"
   id="svg8"
   inkscape:version="0.92.3 (2405546, 2018-03-11)"
   sodipodi:docname="liga.svg">
  <defs
     id="defs2" />
  <sodipodi:namedview
     id="base"
     pagecolor="#ffffff"
     bordercolor="#666666"
     borderopacity="1.0"
     inkscape:pageopacity="0.0"
     inkscape:pageshadow="2"
     inkscape:zoom="0.35"
     inkscape:cx="400"
     inkscape:cy="560"
     inkscape:document-units="mm"
     inkscape:current-layer="layer1"
     showgrid="false"
     inkscape:window-width="1366"
     inkscape:window-height="712"
     inkscape:window-x="0"
     inkscape:window-y="30"
     inkscape:window-maximized="1" />
  <metadata
     id="metadata5">
    <rdf:RDF>
      <cc:Work
         rdf:about="">
        <dc:format>image/svg+xml</dc:format>
        <dc:type
           rdf:resource="http://purl.org/dc/dcmitype/StillImage" />
        <dc:title></dc:title>
      </cc:Work>
    </rdf:RDF>
  </metadata>
  <g
     inkscape:label="Camada 1"
     inkscape:groupmode="layer"
     id="layer1"
     transform="translate(0,-87)">
    <path
       style="opacity:1;fill:#4757fe;fill-opacity:1;stroke:none;stroke-width:0.9686411;stroke-opacity:1"
       d="M 48.572266 2.2714844 C 23.246552 2.2714844 2.8574219 22.660615 2.8574219 47.986328 L 2.8574219 750.84375 C 2.8574219 776.16946 23.246552 796.55859 48.572266 796.55859 L 751.42773 796.55859 C 776.75345 796.55859 797.14258 776.16946 797.14258 750.84375 L 797.14258 47.986328 C 797.14258 22.660615 776.75345 2.2714844 751.42773 2.2714844 L 48.572266 2.2714844 z M 199.85156 101.24023 C 202.82571 101.22447 206.06431 101.24719 209.61328 101.30078 C 291.53991 102.53763 402.0467 167.93771 516.2793 282.79102 C 591.44299 358.36286 648.48837 438.85772 675.58203 507.57422 C 687.4138 537.58234 689.41564 548.13314 689.67578 581.87695 C 690.00498 624.56464 685.83775 634.84084 660.54492 653.72461 C 645.44658 664.99713 596.9445 667.29795 563.45312 658.33008 C 525.00101 648.03408 457.27047 611.56259 408.30469 574.78711 L 362.52344 540.4043 L 281.44727 540.4043 L 200.37109 540.4043 L 227.9043 486.35352 L 255.4375 432.30273 L 242.31641 416.6582 C 191.56858 356.14755 144.06744 269.59933 132.11328 215.86719 C 120.44928 163.44 129.54904 129.29152 160.28906 110.13672 C 171.15774 103.3641 179.03255 101.35061 199.85156 101.24023 z M 234.15625 124.36914 C 186.39149 124.36914 167.54798 143.74175 167.86133 192.51758 C 168.17904 241.98638 195.65125 304.60273 247.68359 374.45312 L 269.43359 403.65234 L 314.5332 313.33398 L 359.63281 223.01758 L 400.42578 222.91992 L 400.42578 222.92383 L 441.2168 222.82617 L 430.49609 214.1543 C 407.33296 195.42016 358.44989 163.52277 333.99219 151.18359 C 297.6786 132.86298 266.05384 124.36914 234.15625 124.36914 z M 455.16406 230.86328 L 393.94141 350.25 L 332.71875 469.63477 L 426.64844 470.78906 L 520.57812 471.94336 L 503.36719 506.17383 L 486.15625 540.4043 L 448.67578 540.5 L 411.19531 540.59766 L 453.70117 568.19141 C 496.52794 595.99214 538.17286 615.30259 569.86719 622.05664 C 593.42211 627.076 630.59438 623.8364 643.04297 615.67969 L 643.04297 615.69531 C 659.50217 604.91088 667.90122 584.21243 667.50195 555.41602 C 666.50178 483.2874 605.3486 380.0049 504.12109 279.48047 L 455.16406 230.86328 z "
       transform="matrix(0.26458333,0,0,0.26458333,0,87)"
       id="rect847" />
  </g>
</svg>
