<?xml version="1.0" encoding="UTF-8" standalone="no"?>
<!-- Created with Inkscape (http://www.inkscape.org/) -->

<svg
   xmlns:dc="http://purl.org/dc/elements/1.1/"
   xmlns:cc="http://creativecommons.org/ns#"
   xmlns:rdf="http://www.w3.org/1999/02/22-rdf-syntax-ns#"
   xmlns:svg="http://www.w3.org/2000/svg"
   xmlns="http://www.w3.org/2000/svg"
   xmlns:sodipodi="http://sodipodi.sourceforge.net/DTD/sodipodi-0.dtd"
   xmlns:inkscape="http://www.inkscape.org/namespaces/inkscape"
   width="108mm"
   height="191mm"
   viewBox="0 0 108 191"
   version="1.1"
   id="svg8"
   inkscape:version="0.92.3 (2405546, 2018-03-11)"
   sodipodi:docname="logo.svg">
  <defs
     id="defs2" />
  <sodipodi:namedview
     id="base"
     pagecolor="#ffffff"
     bordercolor="#666666"
     borderopacity="1.0"
     inkscape:pageopacity="0.0"
     inkscape:pageshadow="2"
     inkscape:zoom="0.35"
     inkscape:cx="-122.85714"
     inkscape:cy="331.42857"
     inkscape:document-units="mm"
     inkscape:current-layer="layer1"
     showgrid="false"
     inkscape:snap-to-guides="true"
     inkscape:window-width="1311"
     inkscape:window-height="712"
     inkscape:window-x="373"
     inkscape:window-y="1107"
     inkscape:window-maximized="1" />
  <metadata
     id="metadata5">
    <rdf:RDF>
      <cc:Work
         rdf:about="">
        <dc:format>image/svg+xml</dc:format>
        <dc:type
           rdf:resource="http://purl.org/dc/dcmitype/StillImage" />
        <dc:title></dc:title>
      </cc:Work>
    </rdf:RDF>
  </metadata>
  <g
     inkscape:label="Camada 1"
     inkscape:groupmode="layer"
     id="layer1"
     transform="translate(0,-106)">
    <path
       style="fill:#4757fe;fill-opacity:1;stroke:#ffffff;stroke-width:2.895;stroke-miterlimit:4;stroke-dasharray:none;stroke-opacity:1"
       d="m 54.347908,280.34707 c -0.170881,-0.2765 -0.43719,-2.39953 -0.712215,-5.67795 -1.320262,-15.73776 -4.087641,-27.31009 -8.99786,-37.62624 -6.592096,-13.84967 -17.712946,-25.21451 -30.193812,-30.85623 -1.099242,-0.4969 -2.30175,-1.01094 -2.672236,-1.14231 -0.370487,-0.13138 -0.709215,-0.33164 -0.752725,-0.44502 -0.08211,-0.21398 0.336442,-5.70484 1.521102,-19.9551 1.541097,-18.53786 2.534928,-27.68869 2.959604,-27.25107 0.259703,0.2676 0.699113,3.15104 1.650032,10.82759 1.789809,14.44877 2.831701,20.28521 4.538293,25.42264 0.499015,1.50219 0.685016,1.87175 0.906383,1.80085 1.473159,-0.47179 4.568634,-1.64126 4.688655,-1.77138 0.418103,-0.45327 1.628795,-5.14771 2.35089,-9.11554 1.311309,-7.20551 2.435019,-16.11103 3.925387,-31.10899 0.814398,-8.19559 1.410167,-13.44501 1.555339,-13.70442 0.20151,-0.36008 0.180576,-0.55714 1.919755,18.07023 1.546463,16.56335 2.991265,27.43253 4.21327,31.69629 l 0.398474,1.39035 1.040974,-0.01 c 0.572535,-0.005 1.801949,-0.0711 2.732035,-0.1463 l 1.691067,-0.13661 0.350815,-1.15715 c 0.192944,-0.63642 0.621787,-2.36934 0.952979,-3.85094 2.095903,-9.37594 3.289327,-20.84377 4.702392,-45.18624 0.611435,-10.53304 0.884959,-14.00345 1.23964,-15.7283 0.102995,-0.50082 0.112962,-0.50584 0.253038,-0.12744 0.363784,0.98274 0.655865,4.55171 1.368726,16.72471 1.563652,26.70134 3.019518,39.22312 5.589413,48.07403 l 0.359094,1.23676 1.154692,0.10396 c 0.635085,0.0572 1.866738,0.15621 2.737025,0.22007 l 1.582334,0.11611 0.365102,-1.36993 c 1.494322,-5.6069 2.84929,-16.355 4.894184,-38.82237 0.888643,-9.76346 1.064272,-11.34968 1.237452,-11.17605 0.169891,0.17035 0.594724,3.88368 1.636487,14.30432 1.686042,16.86515 2.946632,26.36214 4.440686,33.45521 0.61198,2.90539 1.520312,6.10414 1.792611,6.31282 0.107651,0.0825 1.134205,0.46903 2.281237,0.85895 1.14704,0.38995 2.210842,0.75806 2.364013,0.81805 0.219958,0.0861 0.37297,-0.15764 0.727904,-1.15969 1.78033,-5.02614 3.071002,-12.08876 4.725963,-25.8605 0.719053,-5.98365 1.226834,-9.53916 1.501616,-10.51449 0.186141,-0.66067 0.203616,-0.67444 0.352132,-0.27742 0.436476,1.16684 1.642988,13.07566 3.00375,29.64849 0.862768,10.50775 1.158131,14.45842 1.19273,15.95317 l 0.03533,1.52833 -1.621997,0.68257 c -16.186326,6.81147 -29.089164,21.4645 -35.42523,40.23047 -2.817957,8.34612 -4.37811,16.59658 -5.523195,29.20785 -0.445136,4.90241 -0.667644,6.08531 -1.033366,5.49356 z"
       id="path3724"
       inkscape:connector-curvature="0" />
  </g>
</svg>
